<?xml version="1.0" encoding="UTF-8"?>
<svg id="Layer_19" data-name="Layer 19" xmlns="http://www.w3.org/2000/svg" viewBox="0 0 1024 1024">
  <defs>
    <style>
      .cls-1 {
        fill: #1a468a;
      }

      .cls-2 {
        fill: #5a82bc;
      }

      .cls-3 {
        fill: #061634;
      }

      .cls-4 {
        fill: #0b2a5e;
      }

      .cls-5 {
        fill: #fdfdfd;
      }
    </style>
  </defs>
  <path class="cls-3" d="M777,846.55c12.56-46.87-15.36-95.22-62.23-107.78-61.6-16.51-127.94,6.41-204.75,32.95-68.98,23.83-144.63,49.96-228.45,49.96-32.13,0-65.45-3.84-100.07-13.11-2.37-.63-4.73-1.31-7.07-2.02,6.66,7.61,13.58,15.03,20.79,22.23,41.15,41.15,89.07,73.46,142.41,96.02,55.21,23.35,113.88,35.19,174.37,35.19s119.16-11.84,174.37-35.19c17.14-7.25,33.71-15.51,49.68-24.74l-.05-.09c20.36-11.75,34.92-30.73,41-53.43Z"/>
  <path class="cls-4" d="M950.51,584.48c0-92.64-75.36-168-168-168s-168.01,58.85-251.29,121.15c-87.99,65.83-178.98,133.91-289.63,133.91-61.97,0-120.23-24.13-164.05-67.95-1.8-1.8-3.56-3.64-5.3-5.49,1.95,10.03,4.24,19.99,6.88,29.86l.1-.03c7.53,28,22.25,53.73,42.57,74.42,20.9,21.27,47.27,36.63,76.27,44.4,106.02,28.41,200.09-4.09,291.06-35.52,83.15-28.72,161.68-55.86,242.22-34.27,64.24,17.21,107.86,73.36,112.3,136.26,34.14-37.51,61.4-80.09,81.17-126.84,8.06-19.07,14.75-38.54,20.06-58.37h-.04c3.77-14.12,5.68-28.76,5.68-43.52Z"/>
  <path class="cls-1" d="M73.59,439.54c0,92.64,75.36,168,168,168s168.01-58.85,251.29-121.15c87.99-65.83,178.98-133.91,289.63-133.91,61.97,0,120.23,24.13,164.05,67.95,1.76,1.76,3.48,3.56,5.19,5.37-1.95-10-4.23-19.92-6.86-29.76l-.14.04c-7.53-28-22.25-53.73-42.57-74.42-20.9-21.27-47.27-36.63-76.27-44.4-106.02-28.41-200.09,4.09-291.06,35.52-83.15,28.72-161.68,55.85-242.22,34.27-64.24-17.21-107.85-73.35-112.3-136.25-34.12,37.51-61.37,80.07-81.14,126.81-8.06,19.07-14.75,38.54-20.06,58.37l.14.04c-3.77,14.1-5.68,28.74-5.68,43.51Z"/>
  <path class="cls-2" d="M246.97,177.47c-12.56,46.87,15.36,95.22,62.23,107.78,61.6,16.51,127.94-6.41,204.75-32.95,95.42-32.97,203.57-70.33,328.53-36.85,2.39.64,4.77,1.32,7.13,2.04-6.67-7.62-13.6-15.05-20.82-22.27-41.15-41.15-89.07-73.46-142.41-96.02-55.21-23.35-113.88-35.19-174.37-35.19s-119.16,11.84-174.37,35.19c-17.15,7.25-33.73,15.52-49.71,24.75l.05.09c-20.36,11.75-34.92,30.73-41,53.43Z"/>
  <path class="cls-5" d="M983.75,312.7c-25.79-60.97-62.7-115.72-109.71-162.74-47.01-47.01-101.76-83.92-162.74-109.71C648.16,13.54,581.11,0,512,0s-136.16,13.54-199.3,40.25c-60.97,25.79-115.72,62.7-162.74,109.71-47.01,47.01-83.92,101.76-109.71,162.74C13.54,375.84,0,442.89,0,512s13.54,136.16,40.25,199.3c25.79,60.97,62.7,115.72,109.71,162.74,47.01,47.01,101.76,83.92,162.74,109.71,63.14,26.71,130.2,40.25,199.3,40.25s136.16-13.54,199.3-40.25c60.97-25.79,115.72-62.7,162.74-109.71,47.01-47.01,83.92-101.76,109.71-162.74,26.71-63.14,40.25-130.2,40.25-199.3s-13.54-136.16-40.25-199.3ZM337.63,99.19c55.21-23.35,113.88-35.19,174.37-35.19s119.16,11.84,174.37,35.19c53.34,22.56,101.26,54.87,142.41,96.02,7.22,7.22,14.15,14.64,20.82,22.27-2.36-.71-4.74-1.39-7.13-2.04-124.95-33.48-233.1,3.88-328.53,36.85-76.81,26.54-143.15,49.46-204.75,32.95-46.87-12.56-74.78-60.91-62.23-107.78,6.08-22.71,20.65-41.68,41-53.43l-.05-.09c15.98-9.24,32.56-17.5,49.71-24.75ZM99.19,337.63c19.77-46.74,47.02-89.3,81.14-126.81,4.44,62.9,48.06,119.03,112.3,136.25,80.54,21.58,159.07-5.55,242.22-34.27,90.98-31.43,185.05-63.93,291.06-35.52,29,7.77,55.37,23.12,76.27,44.4,20.32,20.69,35.04,46.42,42.57,74.42l.14-.04c2.63,9.84,4.91,19.76,6.86,29.76-1.7-1.81-3.42-3.61-5.19-5.37-43.82-43.82-102.08-67.95-164.05-67.95-110.65,0-201.64,68.07-289.63,133.91-83.28,62.3-161.94,121.15-251.29,121.15s-168-75.36-168-168c0-14.77,1.91-29.41,5.68-43.51l-.14-.04c5.3-19.82,11.99-39.3,20.06-58.37ZM686.37,924.81c-55.21,23.35-113.88,35.19-174.37,35.19s-119.16-11.84-174.37-35.19c-53.34-22.56-101.26-54.87-142.41-96.02-7.2-7.2-14.13-14.62-20.79-22.23,2.34.71,4.7,1.38,7.07,2.02,34.62,9.28,67.94,13.11,100.07,13.11,83.82,0,159.47-26.13,228.45-49.96,76.81-26.54,143.15-49.45,204.75-32.95,46.87,12.56,74.78,60.91,62.23,107.78-6.08,22.7-20.65,41.68-41,53.43l.05.09c-15.97,9.23-32.54,17.49-49.68,24.74ZM924.81,686.37c-19.77,46.75-47.03,89.33-81.17,126.84-4.44-62.9-48.05-119.05-112.3-136.26-80.54-21.58-159.07,5.55-242.22,34.27-90.98,31.43-185.05,63.93-291.06,35.52-29-7.77-55.37-23.12-76.27-44.4-20.32-20.69-35.04-46.42-42.57-74.42l-.1.03c-2.64-9.87-4.93-19.83-6.88-29.86,1.74,1.85,3.5,3.69,5.3,5.49,43.82,43.82,102.08,67.95,164.05,67.95,110.65,0,201.64-68.07,289.63-133.91,83.28-62.3,161.94-121.15,251.29-121.15s168,75.36,168,168c0,14.77-1.91,29.41-5.68,43.51h.04c-5.3,19.83-11.99,39.31-20.06,58.38Z"/>
</svg>